# Blender v2.79 (sub 0) OBJ File: 'airhockey.blend'
# www.blender.org
mtllib puckhires.mtl
o Cylinder
v 0.000000 -0.052084 -1.810776
v 0.000000 0.052084 -1.810776
v 0.337038 -0.052084 -1.777581
v 0.337038 0.052084 -1.777581
v 0.661124 -0.052084 -1.679271
v 0.661124 0.052084 -1.679271
v 0.959803 -0.052084 -1.519624
v 0.959803 0.052084 -1.519624
v 1.221597 -0.052084 -1.304774
v 1.221597 0.052084 -1.304774
v 1.436446 -0.052084 -1.042980
v 1.436446 0.052084 -1.042980
v 1.596093 -0.052084 -0.744301
v 1.596093 0.052084 -0.744301
v 1.694404 -0.052084 -0.420215
v 1.694404 0.052084 -0.420215
v 1.727599 -0.052084 -0.083178
v 1.727599 0.052084 -0.083178
v 1.694404 -0.052084 0.253860
v 1.694404 0.052084 0.253860
v 1.596093 -0.052084 0.577946
v 1.596093 0.052084 0.577946
v 1.436446 -0.052084 0.876625
v 1.436446 0.052084 0.876625
v 1.221597 -0.052084 1.138419
v 1.221597 0.052084 1.138419
v 0.959802 -0.052084 1.353269
v 0.959802 0.052084 1.353269
v 0.661123 -0.052084 1.512916
v 0.661123 0.052084 1.512916
v 0.337037 -0.052084 1.611226
v 0.337037 0.052084 1.611226
v -0.000001 -0.052084 1.644421
v -0.000001 0.052084 1.644421
v -0.337039 -0.052084 1.611226
v -0.337039 0.052084 1.611226
v -0.661124 -0.052084 1.512915
v -0.661124 0.052084 1.512915
v -0.959803 -0.052084 1.353268
v -0.959803 0.052084 1.353268
v -1.221598 -0.052084 1.138419
v -1.221598 0.052084 1.138419
v -1.436447 -0.052084 0.876624
v -1.436447 0.052084 0.876624
v -1.596094 -0.052084 0.577945
v -1.596094 0.052084 0.577945
v -1.694404 -0.052084 0.253859
v -1.694404 0.052084 0.253859
v -1.727599 -0.052084 -0.083179
v -1.727599 0.052084 -0.083179
v -1.694403 -0.052084 -0.420217
v -1.694403 0.052084 -0.420217
v -1.596092 -0.052084 -0.744303
v -1.596092 0.052084 -0.744303
v -1.436445 -0.052084 -1.042982
v -1.436445 0.052084 -1.042982
v -1.221595 -0.052084 -1.304776
v -1.221595 0.052084 -1.304776
v -0.959801 -0.052084 -1.519625
v -0.959801 0.052084 -1.519625
v -0.661121 -0.052084 -1.679272
v -0.661121 0.052084 -1.679272
v -0.337035 -0.052084 -1.777582
v -0.337035 0.052084 -1.777582
v 0.000000 -0.052084 -1.676427
v 0.310828 -0.052084 -1.645813
v 0.310828 0.052084 -1.645813
v 0.000000 0.052084 -1.676427
v 0.609710 -0.052084 -1.555148
v 0.609710 0.052084 -1.555148
v 0.885162 -0.052084 -1.407916
v 0.885162 0.052084 -1.407916
v 1.126597 -0.052084 -1.209775
v 1.126597 0.052084 -1.209775
v 1.324739 -0.052084 -0.968339
v 1.324739 0.052084 -0.968339
v 1.471970 -0.052084 -0.692888
v 1.471970 0.052084 -0.692888
v 1.562635 -0.052084 -0.394005
v 1.562635 0.052084 -0.394005
v 1.593249 -0.052084 -0.083178
v 1.593249 0.052084 -0.083178
v 1.562636 -0.052084 0.227650
v 1.562636 0.052084 0.227650
v 1.471970 -0.052084 0.526532
v 1.471970 0.052084 0.526532
v 1.324739 -0.052084 0.801984
v 1.324739 0.052084 0.801984
v 1.126597 -0.052084 1.043420
v 1.126597 0.052084 1.043420
v 0.885162 -0.052084 1.241561
v 0.885162 0.052084 1.241561
v 0.609710 -0.052084 1.388793
v 0.609710 0.052084 1.388793
v 0.310827 -0.052084 1.479458
v 0.310827 0.052084 1.479458
v -0.000001 -0.052084 1.510072
v -0.000001 0.052084 1.510072
v -0.310828 -0.052084 1.479458
v -0.310828 0.052084 1.479458
v -0.609711 -0.052084 1.388793
v -0.609711 0.052084 1.388793
v -0.885163 -0.052084 1.241560
v -0.885163 0.052084 1.241560
v -1.126598 -0.052084 1.043419
v -1.126598 0.052084 1.043419
v -1.324739 -0.052084 0.801983
v -1.324739 0.052084 0.801983
v -1.471971 -0.052084 0.526531
v -1.471971 0.052084 0.526531
v -1.562636 -0.052084 0.227649
v -1.562636 0.052084 0.227649
v -1.593249 -0.052084 -0.083179
v -1.593249 0.052084 -0.083179
v -1.562635 -0.052084 -0.394007
v -1.562635 0.052084 -0.394007
v -1.471970 -0.052084 -0.692889
v -1.471970 0.052084 -0.692889
v -1.324737 -0.052084 -0.968341
v -1.324737 0.052084 -0.968341
v -1.126596 -0.052084 -1.209776
v -1.126596 0.052084 -1.209776
v -0.885160 -0.052084 -1.407917
v -0.885160 0.052084 -1.407917
v -0.609708 -0.052084 -1.555149
v -0.609708 0.052084 -1.555149
v -0.310825 -0.052084 -1.645814
v -0.310825 0.052084 -1.645814
v 0.000000 -0.011212 -1.676427
v 0.310828 -0.011212 -1.645813
v 0.310828 0.011212 -1.645813
v 0.000000 0.011212 -1.676427
v 0.609710 -0.011212 -1.555148
v 0.609710 0.011212 -1.555148
v 0.885162 -0.011212 -1.407916
v 0.885162 0.011212 -1.407916
v 1.126597 -0.011212 -1.209775
v 1.126597 0.011212 -1.209775
v 1.324739 -0.011212 -0.968339
v 1.324739 0.011212 -0.968339
v 1.471970 -0.011212 -0.692888
v 1.471970 0.011212 -0.692888
v 1.562635 -0.011212 -0.394005
v 1.562635 0.011212 -0.394005
v 1.593249 -0.011212 -0.083178
v 1.593249 0.011212 -0.083178
v 1.562636 -0.011212 0.227650
v 1.562636 0.011212 0.227650
v 1.471970 -0.011212 0.526532
v 1.471970 0.011212 0.526532
v 1.324739 -0.011212 0.801984
v 1.324739 0.011212 0.801984
v 1.126597 -0.011212 1.043420
v 1.126597 0.011212 1.043420
v 0.885162 -0.011212 1.241561
v 0.885162 0.011212 1.241561
v 0.609710 -0.011212 1.388793
v 0.609710 0.011212 1.388793
v 0.310827 -0.011212 1.479458
v 0.310827 0.011212 1.479458
v -0.000001 -0.011212 1.510072
v -0.000001 0.011212 1.510072
v -0.310828 -0.011212 1.479458
v -0.310828 0.011212 1.479458
v -0.609711 -0.011212 1.388793
v -0.609711 0.011212 1.388793
v -0.885163 -0.011212 1.241560
v -0.885163 0.011212 1.241560
v -1.126598 -0.011212 1.043419
v -1.126598 0.011212 1.043419
v -1.324739 -0.011212 0.801983
v -1.324739 0.011212 0.801983
v -1.471971 -0.011212 0.526531
v -1.471971 0.011212 0.526531
v -1.562636 -0.011212 0.227649
v -1.562636 0.011212 0.227649
v -1.593249 -0.011212 -0.083179
v -1.593249 0.011212 -0.083179
v -1.562635 -0.011212 -0.394007
v -1.562635 0.011212 -0.394007
v -1.471970 -0.011212 -0.692889
v -1.471970 0.011212 -0.692889
v -1.324737 -0.011212 -0.968341
v -1.324737 0.011212 -0.968341
v -1.126596 -0.011212 -1.209776
v -1.126596 0.011212 -1.209776
v -0.885160 -0.011212 -1.407917
v -0.885160 0.011212 -1.407917
v -0.609708 -0.011212 -1.555149
v -0.609708 0.011212 -1.555149
v -0.310825 -0.011212 -1.645814
v -0.310825 0.011212 -1.645814
vt 0.760013 0.303218
vt 0.760013 0.000000
vt 0.791123 0.000000
vt 0.791123 0.303218
vt 0.820429 0.000000
vt 0.820429 0.303218
vt 0.846803 0.000000
vt 0.846803 0.303218
vt 0.869232 0.000000
vt 0.869232 0.303218
vt 0.846803 0.303218
vt 0.846803 0.606437
vt 0.820429 0.606437
vt 0.820429 0.303218
vt 0.791123 0.606437
vt 0.791123 0.303218
vt 0.760013 0.606437
vt 0.760013 0.303218
vt 0.728293 0.606437
vt 0.728293 0.303218
vt 0.697182 0.606437
vt 0.697182 0.303218
vt 0.667877 0.606437
vt 0.667877 0.303218
vt 0.641502 0.606437
vt 0.641502 0.303218
vt 0.619073 0.606437
vt 0.619073 0.303218
vt 0.000000 0.906734
vt 0.000000 0.603516
vt 0.026374 0.603516
vt 0.026374 0.906734
vt 0.055680 0.603516
vt 0.055680 0.906734
vt 0.086790 0.603516
vt 0.086790 0.906734
vt 0.118510 0.603516
vt 0.118510 0.906734
vt 0.149621 0.603516
vt 0.149621 0.906734
vt 0.178927 0.603516
vt 0.178927 0.906734
vt 0.205301 0.603516
vt 0.205301 0.906734
vt 0.549789 0.556583
vt 0.549789 0.859801
vt 0.527360 0.859801
vt 0.527360 0.556583
vt 0.500986 0.859801
vt 0.500986 0.556583
vt 0.471680 0.859801
vt 0.471680 0.556583
vt 0.440570 0.859801
vt 0.440570 0.556583
vt 0.408849 0.859801
vt 0.408849 0.556583
vt 0.377739 0.859801
vt 0.377739 0.556583
vt 0.348433 0.859801
vt 0.348433 0.556583
vt 0.322059 0.859801
vt 0.322059 0.556583
vt 0.619073 0.303218
vt 0.619073 0.000000
vt 0.641502 0.000000
vt 0.641502 0.303218
vt 0.667877 0.000000
vt 0.667877 0.303218
vt 0.697182 0.000000
vt 0.697182 0.303218
vt 0.145170 0.603516
vt 0.114059 0.597718
vt 0.117712 0.586435
vt 0.146403 0.591783
vt 0.728293 0.000000
vt 0.728293 0.303218
vt 0.145169 0.301758
vt 0.176890 0.301758
vt 0.175656 0.313491
vt 0.146403 0.313491
vt 0.619073 0.845390
vt 0.619073 0.822600
vt 0.746048 0.822600
vt 0.746048 0.845390
vt 0.873024 0.700814
vt 0.873024 0.728223
vt 0.746049 0.728223
vt 0.746049 0.700814
vt 0.006188 0.496647
vt 0.000000 0.467498
vt 0.012523 0.466342
vt 0.018230 0.493225
vt 0.084753 0.017172
vt 0.114059 0.005798
vt 0.117712 0.017081
vt 0.090685 0.027570
vt 0.315871 0.106869
vt 0.322059 0.136019
vt 0.309536 0.137174
vt 0.303829 0.110292
vt 0.322059 0.437777
vt 0.322059 0.467497
vt 0.309536 0.466342
vt 0.309536 0.438933
vt 0.176889 0.301758
vt 0.145169 0.301758
vt 0.146403 0.290025
vt 0.175656 0.290025
vt 0.114059 0.307556
vt 0.117712 0.318839
vt 0.018327 0.222347
vt 0.006188 0.194889
vt 0.018230 0.191466
vt 0.029425 0.216789
vt 0.018327 0.524105
vt 0.029425 0.518547
vt 0.145169 0.000000
vt 0.146403 0.011733
vt 0.176890 0.603516
vt 0.175656 0.591783
vt 0.322059 0.165739
vt 0.309536 0.164584
vt 0.315871 0.408627
vt 0.303829 0.412050
vt 0.114059 0.295960
vt 0.117712 0.284677
vt 0.084753 0.318930
vt 0.090685 0.329328
vt 0.000000 0.165739
vt 0.012523 0.164584
vt 0.035950 0.548817
vt 0.045677 0.541337
vt 0.176890 0.000000
vt 0.175656 0.011733
vt 0.208000 0.597718
vt 0.204347 0.586436
vt 0.315871 0.194889
vt 0.303829 0.191466
vt 0.303732 0.381169
vt 0.292635 0.386727
vt 0.084753 0.284586
vt 0.090685 0.274188
vt 0.058379 0.335442
vt 0.066362 0.344556
vt 0.000000 0.136019
vt 0.012523 0.137174
vt 0.058379 0.569833
vt 0.066362 0.560719
vt 0.208000 0.005798
vt 0.204347 0.017081
vt 0.237306 0.586344
vt 0.231374 0.575946
vt 0.303732 0.222347
vt 0.292635 0.216789
vt 0.286109 0.356457
vt 0.276382 0.363937
vt 0.058379 0.268074
vt 0.066362 0.258960
vt 0.035950 0.356457
vt 0.045677 0.363937
vt 0.006188 0.106869
vt 0.018230 0.110292
vt 0.084754 0.586344
vt 0.090685 0.575947
vt 0.237306 0.017172
vt 0.231374 0.027570
vt 0.263680 0.569833
vt 0.255697 0.560719
vt 0.286109 0.247059
vt 0.276382 0.239579
vt 0.263680 0.335442
vt 0.255697 0.344556
vt 0.035950 0.247059
vt 0.045677 0.239579
vt 0.018327 0.381169
vt 0.029424 0.386727
vt 0.018327 0.079411
vt 0.029425 0.084969
vt 0.263680 0.033684
vt 0.255697 0.042798
vt 0.286109 0.548817
vt 0.276382 0.541337
vt 0.263680 0.268075
vt 0.255697 0.258961
vt 0.237306 0.318930
vt 0.231374 0.329328
vt 0.006188 0.408627
vt 0.018230 0.412050
vt 0.035950 0.054699
vt 0.045677 0.062179
vt 0.286109 0.054699
vt 0.276382 0.062179
vt 0.303732 0.524105
vt 0.292635 0.518547
vt 0.237306 0.284586
vt 0.231374 0.274188
vt 0.208000 0.307556
vt 0.204347 0.318839
vt 0.000000 0.437777
vt 0.012523 0.438933
vt 0.058379 0.033684
vt 0.066362 0.042798
vt 0.303732 0.079411
vt 0.292635 0.084969
vt 0.315871 0.496647
vt 0.303829 0.493224
vt 0.208000 0.295960
vt 0.204347 0.284677
vt 0.375898 0.247227
vt 0.355213 0.227846
vt 0.338961 0.205056
vt 0.327766 0.179733
vt 0.322059 0.152851
vt 0.322059 0.125441
vt 0.327766 0.098559
vt 0.338961 0.073236
vt 0.355213 0.050446
vt 0.375898 0.031064
vt 0.400221 0.015836
vt 0.427248 0.005347
vt 0.455939 0.000000
vt 0.485192 0.000000
vt 0.513884 0.005347
vt 0.540910 0.015836
vt 0.565233 0.031064
vt 0.585919 0.050445
vt 0.602171 0.073235
vt 0.613366 0.098558
vt 0.619073 0.125441
vt 0.619073 0.152850
vt 0.613366 0.179733
vt 0.602171 0.205056
vt 0.585919 0.227846
vt 0.565234 0.247227
vt 0.540910 0.262455
vt 0.513884 0.272944
vt 0.485193 0.278291
vt 0.455939 0.278291
vt 0.427248 0.272944
vt 0.400222 0.262455
vt 0.327766 0.458024
vt 0.322059 0.431142
vt 0.322059 0.403732
vt 0.327766 0.376850
vt 0.338961 0.351527
vt 0.355213 0.328737
vt 0.375898 0.309356
vt 0.400221 0.294128
vt 0.427248 0.283639
vt 0.455939 0.278291
vt 0.485192 0.278291
vt 0.513884 0.283639
vt 0.540910 0.294128
vt 0.565233 0.309355
vt 0.585919 0.328737
vt 0.602171 0.351527
vt 0.613366 0.376850
vt 0.619073 0.403732
vt 0.619073 0.431142
vt 0.613366 0.458024
vt 0.602171 0.483347
vt 0.585919 0.506137
vt 0.565233 0.525519
vt 0.540910 0.540746
vt 0.513884 0.551235
vt 0.485192 0.556583
vt 0.455939 0.556583
vt 0.427248 0.551235
vt 0.400221 0.540746
vt 0.375898 0.525518
vt 0.355213 0.506137
vt 0.338961 0.483347
vt 1.000000 0.826008
vt 1.000000 0.851331
vt 0.873024 0.851331
vt 0.873024 0.826008
vt 0.746049 0.700813
vt 0.746049 0.728223
vt 0.619073 0.728223
vt 0.619073 0.700813
vt 0.746049 1.000000
vt 0.746049 0.977210
vt 0.873024 0.977210
vt 0.873024 1.000000
vt 1.000000 0.755105
vt 1.000000 0.780428
vt 0.873024 0.780428
vt 0.873024 0.755105
vt 0.996208 0.000000
vt 0.996208 0.019381
vt 0.869232 0.019381
vt 0.869232 0.000000
vt 1.000000 0.878214
vt 0.873024 0.878214
vt 0.846803 0.322600
vt 0.846803 0.303218
vt 0.973779 0.303218
vt 0.973779 0.322600
vt 1.000000 0.728223
vt 0.873024 0.728223
vt 0.996208 0.042171
vt 0.869232 0.042171
vt 1.000000 0.905623
vt 0.873024 0.905623
vt 0.846803 0.345390
vt 0.973779 0.345390
vt 1.000000 0.700814
vt 0.873024 0.700813
vt 0.996208 0.067494
vt 0.869232 0.067494
vt 1.000000 0.932506
vt 0.873024 0.932506
vt 0.846803 0.370713
vt 0.973779 0.370713
vt 1.000000 0.673931
vt 0.873024 0.673931
vt 0.996208 0.094377
vt 0.869232 0.094377
vt 1.000000 0.957829
vt 0.873024 0.957829
vt 0.846803 0.397595
vt 0.973779 0.397595
vt 1.000000 0.648608
vt 0.873024 0.648608
vt 0.996208 0.121786
vt 0.869232 0.121786
vt 1.000000 0.980619
vt 0.873024 0.980619
vt 0.846803 0.425005
vt 0.973779 0.425005
vt 1.000000 0.625818
vt 0.873024 0.625818
vt 0.996208 0.148669
vt 0.869233 0.148669
vt 1.000000 1.000000
vt 0.873024 1.000000
vt 0.846803 0.451887
vt 0.973779 0.451887
vt 1.000000 0.606437
vt 0.873024 0.606437
vt 0.996208 0.173992
vt 0.869233 0.173992
vt 0.619073 1.000000
vt 0.619073 0.977210
vt 0.746049 0.977210
vt 0.746049 1.000000
vt 0.846803 0.477210
vt 0.973779 0.477210
vt 0.746049 0.845390
vt 0.746049 0.822600
vt 0.873024 0.822600
vt 0.873024 0.845390
vt 0.996208 0.196782
vt 0.869233 0.196782
vt 0.619073 0.951887
vt 0.746049 0.951887
vt 0.873024 0.755105
vt 0.746049 0.755105
vt 0.846803 0.500000
vt 0.973779 0.500000
vt 0.746049 0.870712
vt 0.873024 0.870712
vt 0.746049 0.673931
vt 0.619073 0.673931
vt 0.873024 0.606437
vt 0.873024 0.625818
vt 0.746049 0.625818
vt 0.746049 0.606437
vt 0.619073 0.925004
vt 0.746049 0.925004
vt 0.873024 0.780428
vt 0.746049 0.780428
vt 0.746049 0.803218
vt 0.746049 0.822600
vt 0.619073 0.822600
vt 0.619073 0.803218
vt 0.746049 0.897595
vt 0.873024 0.897595
vt 0.746049 0.648608
vt 0.619073 0.648608
vt 0.873024 0.648608
vt 0.746049 0.648608
vt 0.619073 0.897595
vt 0.746049 0.897595
vt 0.873024 0.803218
vt 0.746049 0.803218
vt 0.746049 0.780428
vt 0.619073 0.780428
vt 0.746049 0.925004
vt 0.873024 0.925004
vt 0.746049 0.625818
vt 0.619073 0.625818
vt 0.873024 0.673931
vt 0.746049 0.673931
vt 0.619073 0.870713
vt 0.746049 0.870712
vt 0.873024 0.822600
vt 0.746049 0.822600
vt 0.746048 0.755105
vt 0.619073 0.755105
vt 0.746049 0.951887
vt 0.873024 0.951887
vt 0.746049 0.606437
vt 0.619073 0.606437
vt 1.000000 0.803218
vt 0.873024 0.803218
vt 1.000000 0.803218
vt 0.873024 0.803218
vn 0.0980 0.0000 -0.9952
vn 0.2903 0.0000 -0.9569
vn 0.4714 0.0000 -0.8819
vn 0.6344 0.0000 -0.7730
vn 0.7730 0.0000 -0.6344
vn 0.8819 0.0000 -0.4714
vn 0.9569 0.0000 -0.2903
vn 0.9952 0.0000 -0.0980
vn 0.9952 0.0000 0.0980
vn 0.9569 0.0000 0.2903
vn 0.8819 0.0000 0.4714
vn 0.7730 0.0000 0.6344
vn 0.6344 0.0000 0.7730
vn 0.4714 0.0000 0.8819
vn 0.2903 0.0000 0.9569
vn 0.0980 0.0000 0.9952
vn -0.0980 0.0000 0.9952
vn -0.2903 0.0000 0.9569
vn -0.4714 0.0000 0.8819
vn -0.6344 0.0000 0.7730
vn -0.7730 0.0000 0.6344
vn -0.8819 0.0000 0.4714
vn -0.9569 0.0000 0.2903
vn -0.9952 0.0000 0.0980
vn -0.9952 0.0000 -0.0980
vn -0.9569 0.0000 -0.2903
vn -0.8819 0.0000 -0.4714
vn -0.7730 0.0000 -0.6344
vn -0.6344 0.0000 -0.7730
vn -0.4714 0.0000 -0.8819
vn 0.0000 1.0000 -0.0000
vn -0.2903 0.0000 -0.9569
vn -0.0980 0.0000 -0.9952
vn 0.0000 -1.0000 -0.0000
usemtl None
s off
f 1/1/1 2/2/1 4/3/1 3/4/1
f 3/4/2 4/3/2 6/5/2 5/6/2
f 5/6/3 6/5/3 8/7/3 7/8/3
f 7/8/4 8/7/4 10/9/4 9/10/4
f 9/11/5 10/12/5 12/13/5 11/14/5
f 11/14/6 12/13/6 14/15/6 13/16/6
f 13/16/7 14/15/7 16/17/7 15/18/7
f 15/18/8 16/17/8 18/19/8 17/20/8
f 17/20/9 18/19/9 20/21/9 19/22/9
f 19/22/10 20/21/10 22/23/10 21/24/10
f 21/24/11 22/23/11 24/25/11 23/26/11
f 23/26/12 24/25/12 26/27/12 25/28/12
f 25/29/13 26/30/13 28/31/13 27/32/13
f 27/32/14 28/31/14 30/33/14 29/34/14
f 29/34/15 30/33/15 32/35/15 31/36/15
f 31/36/16 32/35/16 34/37/16 33/38/16
f 33/38/17 34/37/17 36/39/17 35/40/17
f 35/40/18 36/39/18 38/41/18 37/42/18
f 37/42/19 38/41/19 40/43/19 39/44/19
f 39/45/20 40/46/20 42/47/20 41/48/20
f 41/48/21 42/47/21 44/49/21 43/50/21
f 43/50/22 44/49/22 46/51/22 45/52/22
f 45/52/23 46/51/23 48/53/23 47/54/23
f 47/54/24 48/53/24 50/55/24 49/56/24
f 49/56/25 50/55/25 52/57/25 51/58/25
f 51/58/26 52/57/26 54/59/26 53/60/26
f 53/60/27 54/59/27 56/61/27 55/62/27
f 55/63/28 56/64/28 58/65/28 57/66/28
f 57/66/29 58/65/29 60/67/29 59/68/29
f 59/68/30 60/67/30 62/69/30 61/70/30
f 4/71/31 2/72/31 68/73/31 67/74/31
f 61/70/32 62/69/32 64/75/32 63/76/32
f 63/76/33 64/75/33 2/2/33 1/1/33
f 38/77/31 36/78/31 100/79/31 102/80/31
f 101/81/3 103/82/3 167/83/3 165/84/3
f 127/85/16 65/86/16 129/87/16 191/88/16
f 56/89/31 54/90/31 118/91/31 120/92/31
f 19/93/34 21/94/34 85/95/34 83/96/34
f 37/97/34 39/98/34 103/99/34 101/100/34
f 22/101/31 20/102/31 84/103/31 86/104/31
f 55/105/34 57/106/34 121/107/34 119/108/34
f 40/109/31 38/77/31 102/80/31 104/110/31
f 3/111/34 5/112/34 69/113/34 66/114/34
f 58/115/31 56/89/31 120/92/31 122/116/31
f 21/94/34 23/117/34 87/118/34 85/95/34
f 6/119/31 4/71/31 67/74/31 70/120/31
f 39/98/34 41/121/34 105/122/34 103/99/34
f 24/123/31 22/101/31 86/104/31 88/124/31
f 57/106/34 59/125/34 123/126/34 121/107/34
f 42/127/31 40/109/31 104/110/31 106/128/31
f 5/112/34 7/129/34 71/130/34 69/113/34
f 60/131/31 58/115/31 122/116/31 124/132/31
f 23/117/34 25/133/34 89/134/34 87/118/34
f 8/135/31 6/119/31 70/120/31 72/136/31
f 41/121/34 43/137/34 107/138/34 105/122/34
f 26/139/31 24/123/31 88/124/31 90/140/31
f 59/125/34 61/141/34 125/142/34 123/126/34
f 44/143/31 42/127/31 106/128/31 108/144/31
f 7/129/34 9/145/34 73/146/34 71/130/34
f 62/147/31 60/131/31 124/132/31 126/148/31
f 25/133/34 27/149/34 91/150/34 89/134/34
f 10/151/31 8/135/31 72/136/31 74/152/31
f 43/137/34 45/153/34 109/154/34 107/138/34
f 28/155/31 26/139/31 90/140/31 92/156/31
f 61/141/34 63/157/34 127/158/34 125/142/34
f 46/159/31 44/143/31 108/144/31 110/160/31
f 9/145/34 11/161/34 75/162/34 73/146/34
f 64/163/31 62/147/31 126/148/31 128/164/31
f 27/149/34 29/165/34 93/166/34 91/150/34
f 12/167/31 10/151/31 74/152/31 76/168/31
f 45/153/34 47/169/34 111/170/34 109/154/34
f 30/171/31 28/155/31 92/156/31 94/172/31
f 63/157/34 1/173/34 65/174/34 127/158/34
f 48/175/31 46/159/31 110/160/31 112/176/31
f 11/161/34 13/177/34 77/178/34 75/162/34
f 2/72/31 64/163/31 128/164/31 68/73/31
f 29/165/34 31/179/34 95/180/34 93/166/34
f 14/181/31 12/167/31 76/168/31 78/182/31
f 47/169/34 49/183/34 113/184/34 111/170/34
f 32/185/31 30/171/31 94/172/31 96/186/31
f 50/187/31 48/175/31 112/176/31 114/188/31
f 13/177/34 15/189/34 79/190/34 77/178/34
f 31/179/34 33/191/34 97/192/34 95/180/34
f 16/193/31 14/181/31 78/182/31 80/194/31
f 49/183/34 51/195/34 115/196/34 113/184/34
f 34/197/31 32/185/31 96/186/31 98/198/31
f 52/199/31 50/187/31 114/188/31 116/200/31
f 15/189/34 17/201/34 81/202/34 79/190/34
f 33/191/34 35/203/34 99/204/34 97/192/34
f 18/205/31 16/193/31 80/194/31 82/206/31
f 51/195/34 53/207/34 117/208/34 115/196/34
f 36/78/31 34/197/31 98/198/31 100/79/31
f 54/90/31 52/199/31 116/200/31 118/91/31
f 17/201/34 19/93/34 83/96/34 81/202/34
f 35/203/34 37/97/34 101/100/34 99/204/34
f 20/102/31 18/205/31 82/206/31 84/103/31
f 1/173/34 3/111/34 66/114/34 65/174/34
f 53/207/34 55/105/34 119/108/34 117/208/34
f 131/209/31 132/210/31 192/211/31 190/212/31 188/213/31 186/214/31 184/215/31 182/216/31 180/217/31 178/218/31 176/219/31 174/220/31 172/221/31 170/222/31 168/223/31 166/224/31 164/225/31 162/226/31 160/227/31 158/228/31 156/229/31 154/230/31 152/231/31 150/232/31 148/233/31 146/234/31 144/235/31 142/236/31 140/237/31 138/238/31 136/239/31 134/240/31
f 129/241/34 130/242/34 133/243/34 135/244/34 137/245/34 139/246/34 141/247/34 143/248/34 145/249/34 147/250/34 149/251/34 151/252/34 153/253/34 155/254/34 157/255/34 159/256/34 161/257/34 163/258/34 165/259/34 167/260/34 169/261/34 171/262/34 173/263/34 175/264/34 177/265/34 179/266/34 181/267/34 183/268/34 185/269/34 187/270/34 189/271/34 191/272/34
f 75/273/22 77/274/22 141/275/22 139/276/22
f 68/277/16 128/278/16 192/279/16 132/280/16
f 104/281/3 102/282/3 166/283/3 168/284/3
f 78/285/22 76/286/22 140/287/22 142/288/22
f 103/289/4 105/290/4 169/291/4 167/292/4
f 77/274/23 79/293/23 143/294/23 141/275/23
f 106/295/4 104/296/4 168/297/4 170/298/4
f 80/299/23 78/285/23 142/288/23 144/300/23
f 105/290/5 107/301/5 171/302/5 169/291/5
f 79/293/24 81/303/24 145/304/24 143/294/24
f 108/305/5 106/295/5 170/298/5 172/306/5
f 82/307/24 80/299/24 144/300/24 146/308/24
f 107/301/6 109/309/6 173/310/6 171/302/6
f 81/303/25 83/311/25 147/312/25 145/304/25
f 110/313/6 108/305/6 172/306/6 174/314/6
f 84/315/25 82/307/25 146/308/25 148/316/25
f 109/309/7 111/317/7 175/318/7 173/310/7
f 83/311/26 85/319/26 149/320/26 147/312/26
f 112/321/7 110/313/7 174/314/7 176/322/7
f 86/323/26 84/315/26 148/316/26 150/324/26
f 111/317/8 113/325/8 177/326/8 175/318/8
f 85/319/27 87/327/27 151/328/27 149/320/27
f 114/329/8 112/321/8 176/322/8 178/330/8
f 88/331/27 86/323/27 150/324/27 152/332/27
f 113/325/9 115/333/9 179/334/9 177/326/9
f 87/327/28 89/335/28 153/336/28 151/328/28
f 116/337/9 114/329/9 178/330/9 180/338/9
f 90/339/28 88/331/28 152/332/28 154/340/28
f 115/333/10 117/341/10 181/342/10 179/334/10
f 89/343/29 91/344/29 155/345/29 153/346/29
f 118/347/10 116/337/10 180/338/10 182/348/10
f 92/349/29 90/350/29 154/351/29 156/352/29
f 117/341/11 119/353/11 183/354/11 181/342/11
f 91/344/30 93/355/30 157/356/30 155/345/30
f 65/86/17 66/357/17 130/358/17 129/87/17
f 120/359/11 118/347/11 182/348/11 184/360/11
f 94/361/30 92/349/30 156/352/30 158/362/30
f 67/363/17 68/277/17 132/280/17 131/364/17
f 119/365/12 121/366/12 185/367/12 183/368/12
f 93/355/32 95/369/32 159/370/32 157/356/32
f 66/357/18 69/371/18 133/372/18 130/358/18
f 122/373/12 120/374/12 184/375/12 186/376/12
f 96/377/32 94/361/32 158/362/32 160/378/32
f 70/379/18 67/363/18 131/364/18 134/380/18
f 121/366/13 123/381/13 187/382/13 185/367/13
f 95/369/33 97/383/33 161/384/33 159/370/33
f 69/371/19 71/385/19 135/386/19 133/372/19
f 124/387/13 122/373/13 186/376/13 188/388/13
f 98/389/33 96/377/33 160/378/33 162/390/33
f 72/391/19 70/379/19 134/380/19 136/392/19
f 123/381/14 125/393/14 189/394/14 187/382/14
f 97/383/1 99/395/1 163/396/1 161/384/1
f 71/385/20 73/397/20 137/398/20 135/386/20
f 126/399/14 124/387/14 188/388/14 190/400/14
f 100/401/1 98/389/1 162/390/1 164/402/1
f 74/403/20 72/391/20 136/392/20 138/404/20
f 125/393/15 127/85/15 191/88/15 189/394/15
f 99/395/2 101/81/2 165/84/2 163/396/2
f 73/405/21 75/273/21 139/276/21 137/406/21
f 128/278/15 126/399/15 190/400/15 192/279/15
f 102/282/2 100/401/2 164/402/2 166/283/2
f 76/286/21 74/407/21 138/408/21 140/287/21
