# Blender v2.79 (sub 0) OBJ File: 'airhockey.blend'
# www.blender.org
mtllib pucklowres.mtl
o Cylinder.001
v 0.000000 -0.050135 -1.775691
v 0.000000 0.050135 -1.775691
v 0.548719 -0.050135 -1.688783
v 0.548719 0.050135 -1.688783
v 1.043725 -0.050135 -1.436564
v 1.043725 0.050135 -1.436564
v 1.436564 -0.050135 -1.043725
v 1.436564 0.050135 -1.043725
v 1.688783 -0.050135 -0.548719
v 1.688783 0.050135 -0.548719
v 1.775691 -0.050135 0.000000
v 1.775691 0.050135 0.000000
v 1.688783 -0.050135 0.548719
v 1.688783 0.050135 0.548719
v 1.436564 -0.050135 1.043725
v 1.436564 0.050135 1.043725
v 1.043725 -0.050135 1.436564
v 1.043725 0.050135 1.436564
v 0.548718 -0.050135 1.688783
v 0.548718 0.050135 1.688783
v -0.000001 -0.050135 1.775691
v -0.000001 0.050135 1.775691
v -0.548720 -0.050135 1.688782
v -0.548720 0.050135 1.688782
v -1.043726 -0.050135 1.436564
v -1.043726 0.050135 1.436564
v -1.436565 -0.050135 1.043724
v -1.436565 0.050135 1.043724
v -1.688783 -0.050135 0.548717
v -1.688783 0.050135 0.548717
v -1.775691 -0.050135 -0.000002
v -1.775691 0.050135 -0.000002
v -1.688782 -0.050135 -0.548721
v -1.688782 0.050135 -0.548721
v -1.436563 -0.050135 -1.043727
v -1.436563 0.050135 -1.043727
v -1.043723 -0.050135 -1.436566
v -1.043723 0.050135 -1.436566
v -0.548716 -0.050135 -1.688783
v -0.548716 0.050135 -1.688783
v 0.000000 -0.046303 -1.639978
v 0.506781 -0.046303 -1.559712
v 0.506781 0.046303 -1.559712
v 0.000000 0.046303 -1.639978
v 0.963955 -0.046303 -1.326770
v 0.963955 0.046303 -1.326770
v 1.326770 -0.046303 -0.963955
v 1.326770 0.046303 -0.963955
v 1.559712 -0.046303 -0.506781
v 1.559712 0.046303 -0.506781
v 1.639978 -0.046303 0.000000
v 1.639978 0.046303 0.000000
v 1.559712 -0.046303 0.506781
v 1.559712 0.046303 0.506781
v 1.326770 -0.046303 0.963955
v 1.326770 0.046303 0.963955
v 0.963955 -0.046303 1.326770
v 0.963955 0.046303 1.326770
v 0.506781 -0.046303 1.559712
v 0.506781 0.046303 1.559712
v -0.000001 -0.046303 1.639978
v -0.000001 0.046303 1.639978
v -0.506782 -0.046303 1.559712
v -0.506782 0.046303 1.559712
v -0.963956 -0.046303 1.326770
v -0.963956 0.046303 1.326770
v -1.326771 -0.046303 0.963954
v -1.326771 0.046303 0.963954
v -1.559712 -0.046303 0.506780
v -1.559712 0.046303 0.506780
v -1.639978 -0.046303 -0.000002
v -1.639978 0.046303 -0.000002
v -1.559711 -0.046303 -0.506783
v -1.559711 0.046303 -0.506783
v -1.326769 -0.046303 -0.963957
v -1.326769 0.046303 -0.963957
v -0.963953 -0.046303 -1.326772
v -0.963953 0.046303 -1.326772
v -0.506779 -0.046303 -1.559713
v -0.506779 0.046303 -1.559713
v 0.000000 -0.014677 -1.639978
v 0.506781 -0.014677 -1.559712
v 0.506781 0.014677 -1.559712
v 0.000000 0.014677 -1.639978
v 0.963955 -0.014677 -1.326770
v 0.963955 0.014677 -1.326770
v 1.326770 -0.014677 -0.963955
v 1.326770 0.014677 -0.963955
v 1.559712 -0.014677 -0.506781
v 1.559712 0.014677 -0.506781
v 1.639978 -0.014677 0.000000
v 1.639978 0.014677 0.000000
v 1.559712 -0.014677 0.506781
v 1.559712 0.014677 0.506781
v 1.326770 -0.014677 0.963955
v 1.326770 0.014677 0.963955
v 0.963955 -0.014677 1.326770
v 0.963955 0.014677 1.326770
v 0.506781 -0.014677 1.559712
v 0.506781 0.014677 1.559712
v -0.000001 -0.014677 1.639978
v -0.000001 0.014677 1.639978
v -0.506782 -0.014677 1.559712
v -0.506782 0.014677 1.559712
v -0.963956 -0.014677 1.326770
v -0.963956 0.014677 1.326770
v -1.326771 -0.014677 0.963954
v -1.326771 0.014677 0.963954
v -1.559712 -0.014677 0.506780
v -1.559712 0.014677 0.506780
v -1.639978 -0.014677 -0.000002
v -1.639978 0.014677 -0.000002
v -1.559711 -0.014677 -0.506783
v -1.559711 0.014677 -0.506783
v -1.326769 -0.014677 -0.963957
v -1.326769 0.014677 -0.963957
v -0.963953 -0.014677 -1.326771
v -0.963953 0.014677 -1.326771
v -0.506779 -0.014677 -1.559713
v -0.506779 0.014677 -1.559713
vt 0.478838 0.000000
vt 0.478838 0.354057
vt 0.423103 0.354057
vt 0.423103 0.000000
vt 0.370095 0.354057
vt 0.370095 0.000000
vt 0.325004 0.354057
vt 0.325004 0.000000
vt 0.206841 0.645943
vt 0.206841 1.000000
vt 0.153834 1.000000
vt 0.153834 0.645943
vt 0.098098 1.000000
vt 0.098098 0.645943
vt 0.045091 1.000000
vt 0.045091 0.645943
vt 0.000000 1.000000
vt 0.000000 0.645943
vt 0.576936 0.354057
vt 0.576936 0.708114
vt 0.531846 0.708114
vt 0.531846 0.354057
vt 0.478838 0.708114
vt 0.478838 0.354057
vt 0.423103 0.708114
vt 0.423103 0.354057
vt 0.370095 0.708114
vt 0.370095 0.354057
vt 0.325004 0.708114
vt 0.325004 0.354057
vt 0.828869 0.354057
vt 0.828869 0.708114
vt 0.783778 0.708114
vt 0.783778 0.354057
vt 0.730770 0.708114
vt 0.730770 0.354057
vt 0.675035 0.708114
vt 0.675035 0.354057
vt 0.622027 0.708114
vt 0.622027 0.354057
vt 0.576937 0.708114
vt 0.576936 0.354057
vt 0.609697 0.000000
vt 0.609697 0.354057
vt 0.576936 0.354057
vt 0.576936 0.000000
vt 0.930010 0.158760
vt 0.921291 0.104055
vt 0.934906 0.104055
vt 0.942959 0.154579
vt 0.531845 0.354057
vt 0.531845 0.000000
vt 0.861680 0.152872
vt 0.861680 0.097485
vt 0.875127 0.099601
vt 0.875128 0.150755
vt 0.338619 0.849302
vt 0.338619 0.798149
vt 0.450996 0.798149
vt 0.450996 0.849302
vt 0.716595 0.749499
vt 0.716595 0.708114
vt 0.828971 0.708114
vt 0.828971 0.749499
vt 0.206841 0.798814
vt 0.206841 0.743427
vt 0.220289 0.745544
vt 0.220289 0.796698
vt 0.266452 0.749998
vt 0.275171 0.695293
vt 0.288120 0.699474
vt 0.280067 0.749998
vt 0.963579 0.403407
vt 0.988883 0.354057
vt 0.999897 0.362010
vt 0.976528 0.407588
vt 0.858223 0.651958
vt 0.858223 0.596571
vt 0.871671 0.598687
vt 0.871671 0.649841
vt 0.988985 0.916224
vt 0.963682 0.866874
vt 0.976631 0.862693
vt 1.000000 0.908271
vt 0.828869 0.651958
vt 0.828869 0.596571
vt 0.842316 0.598687
vt 0.842316 0.649841
vt 0.878903 0.044809
vt 0.891034 0.050951
vt 0.930010 0.049350
vt 0.942959 0.053531
vt 0.224064 0.851490
vt 0.236196 0.845348
vt 0.275171 0.804702
vt 0.288120 0.800521
vt 0.735688 0.173372
vt 0.735688 0.117985
vt 0.749303 0.120102
vt 0.749303 0.171255
vt 0.875446 0.543895
vt 0.887577 0.550037
vt 0.988883 0.562167
vt 0.963579 0.512817
vt 0.976528 0.508636
vt 0.999897 0.554214
vt 0.609697 0.143304
vt 0.609697 0.087918
vt 0.623312 0.090034
vt 0.623312 0.141188
vt 0.846092 0.704634
vt 0.858223 0.698491
vt 0.963682 0.757464
vt 0.988985 0.708114
vt 1.000000 0.716067
vt 0.976631 0.761645
vt 0.911664 0.000000
vt 0.921291 0.009567
vt 0.955313 0.000000
vt 0.966328 0.007953
vt 0.256825 0.896299
vt 0.266452 0.886732
vt 0.300475 0.854052
vt 0.311489 0.846100
vt 0.911664 0.250356
vt 0.878903 0.205547
vt 0.891034 0.199405
vt 0.921291 0.240789
vt 0.576988 0.796032
vt 0.576988 0.851419
vt 0.563373 0.849302
vt 0.563373 0.798149
vt 0.224064 0.690751
vt 0.256825 0.645943
vt 0.266452 0.655510
vt 0.236196 0.696894
vt 0.325004 0.851419
vt 0.325004 0.796032
vt 0.954860 0.458112
vt 0.968475 0.458112
vt 0.828869 0.455977
vt 0.828869 0.400591
vt 0.842484 0.402707
vt 0.842484 0.453861
vt 0.702979 0.851419
vt 0.702979 0.796032
vt 0.716595 0.798149
vt 0.716595 0.849302
vt 0.954963 0.812169
vt 0.968578 0.812169
vt 0.828971 0.851419
vt 0.828971 0.796032
vt 0.842586 0.798149
vt 0.842586 0.849302
vt 0.576988 0.851419
vt 0.576988 0.796032
vt 0.590603 0.798149
vt 0.590603 0.849302
vt 0.955313 0.208110
vt 0.966328 0.200157
vt 0.300475 0.645943
vt 0.311489 0.653895
vt 0.875446 0.704634
vt 0.887577 0.698491
vt 0.846092 0.543895
vt 0.858223 0.550037
vt 0.015907 0.235712
vt 0.000000 0.187063
vt 0.000000 0.135909
vt 0.015907 0.087259
vt 0.046163 0.045875
vt 0.087808 0.015807
vt 0.136764 0.000000
vt 0.188240 0.000000
vt 0.237196 0.015807
vt 0.278841 0.045875
vt 0.309097 0.087259
vt 0.325004 0.135909
vt 0.325004 0.187062
vt 0.309097 0.235712
vt 0.278841 0.277097
vt 0.237196 0.307164
vt 0.188240 0.322971
vt 0.136764 0.322971
vt 0.087808 0.307164
vt 0.046163 0.277097
vt 0.046164 0.600068
vt 0.015907 0.558684
vt 0.000000 0.510034
vt 0.000000 0.458880
vt 0.015907 0.410230
vt 0.046163 0.368846
vt 0.087808 0.338779
vt 0.136764 0.322971
vt 0.188240 0.322971
vt 0.237196 0.338779
vt 0.278841 0.368846
vt 0.309097 0.410230
vt 0.325004 0.458880
vt 0.325004 0.510034
vt 0.309097 0.558684
vt 0.278841 0.600068
vt 0.237196 0.630135
vt 0.188240 0.645943
vt 0.136764 0.645943
vt 0.087808 0.630135
vt 0.842484 0.543895
vt 0.842484 0.502511
vt 0.954860 0.502511
vt 0.954860 0.543895
vt 0.590603 0.939336
vt 0.590603 0.897952
vt 0.702980 0.897952
vt 0.702980 0.939336
vt 0.563373 0.897952
vt 0.450996 0.897952
vt 0.450996 0.849302
vt 0.842586 0.749499
vt 0.842586 0.708114
vt 0.954963 0.708114
vt 0.954963 0.749499
vt 0.749303 0.261289
vt 0.749303 0.219905
vt 0.861680 0.219905
vt 0.861680 0.261289
vt 0.338619 0.897952
vt 0.450996 0.897952
vt 0.954860 0.453861
vt 0.623312 0.041384
vt 0.623312 0.000000
vt 0.735688 0.000000
vt 0.735688 0.041384
vt 0.563373 0.939336
vt 0.450996 0.939336
vt 0.954963 0.798149
vt 0.861680 0.171255
vt 0.338619 0.939336
vt 0.450996 0.939336
vt 0.954860 0.402707
vt 0.735688 0.090034
vt 0.716595 0.939336
vt 0.716595 0.897952
vt 0.828971 0.897952
vt 0.828971 0.939336
vt 0.954963 0.849302
vt 0.861680 0.120102
vt 0.590603 0.749499
vt 0.590603 0.708114
vt 0.702979 0.708114
vt 0.702979 0.749499
vt 0.842484 0.354057
vt 0.954860 0.354057
vt 0.735688 0.141188
vt 0.828971 0.849302
vt 0.842586 0.897952
vt 0.954963 0.897952
vt 0.749303 0.071452
vt 0.861680 0.071452
vt 0.702979 0.798149
vt 0.563373 0.708114
vt 0.563373 0.749499
vt 0.450996 0.749499
vt 0.450996 0.708114
vt 0.623312 0.189838
vt 0.735688 0.189838
vt 0.828971 0.798149
vt 0.338619 0.749499
vt 0.338619 0.708114
vt 0.450996 0.708114
vt 0.450996 0.749499
vt 0.749303 0.030067
vt 0.861680 0.030067
vt 0.702979 0.849302
vt 0.450996 0.798149
vt 0.623312 0.231222
vt 0.735688 0.231222
vt 0.749303 0.000000
vt 0.861680 0.000000
vt 0.623312 0.261289
vt 0.735688 0.261289
vn 0.1564 0.0000 -0.9877
vn 0.4540 0.0000 -0.8910
vn 0.7071 0.0000 -0.7071
vn 0.8910 0.0000 -0.4540
vn 0.9877 0.0000 -0.1564
vn 0.9877 0.0000 0.1564
vn 0.8910 0.0000 0.4540
vn 0.7071 0.0000 0.7071
vn 0.4540 0.0000 0.8910
vn 0.1564 0.0000 0.9877
vn -0.1564 0.0000 0.9877
vn -0.4540 0.0000 0.8910
vn -0.7071 0.0000 0.7071
vn -0.8910 0.0000 0.4540
vn -0.9877 0.0000 0.1564
vn -0.9877 0.0000 -0.1564
vn -0.8910 0.0000 -0.4540
vn -0.7071 0.0000 -0.7071
vn 0.0255 -0.9996 0.0130
vn -0.4540 0.0000 -0.8910
vn -0.1564 0.0000 -0.9877
vn -0.0202 -0.9996 -0.0202
vn -0.0202 0.9996 -0.0202
vn 0.0255 0.9996 0.0130
vn -0.0255 -0.9996 0.0130
vn 0.0202 -0.9996 -0.0202
vn -0.0255 0.9996 0.0130
vn 0.0202 0.9996 -0.0202
vn -0.0130 -0.9996 -0.0255
vn 0.0202 -0.9996 0.0202
vn -0.0130 0.9996 -0.0255
vn 0.0202 0.9996 0.0202
vn -0.0282 -0.9996 0.0045
vn 0.0255 -0.9996 -0.0130
vn -0.0045 -0.9996 0.0282
vn -0.0282 0.9996 0.0045
vn 0.0255 0.9996 -0.0130
vn -0.0045 0.9996 0.0282
vn -0.0045 -0.9996 -0.0282
vn 0.0130 -0.9996 0.0255
vn -0.0045 0.9996 -0.0282
vn 0.0130 0.9996 0.0255
vn -0.0282 -0.9996 -0.0045
vn 0.0282 -0.9996 -0.0045
vn -0.0282 0.9996 -0.0045
vn 0.0282 0.9996 -0.0045
vn -0.0130 -0.9996 0.0255
vn 0.0045 -0.9996 -0.0282
vn 0.0045 -0.9996 0.0282
vn -0.0130 0.9996 0.0255
vn 0.0045 0.9996 -0.0282
vn 0.0045 0.9996 0.0282
vn -0.0255 -0.9996 -0.0130
vn 0.0282 -0.9996 0.0045
vn -0.0255 0.9996 -0.0130
vn 0.0282 0.9996 0.0045
vn -0.0202 -0.9996 0.0202
vn 0.0130 -0.9996 -0.0255
vn -0.0202 0.9996 0.0202
vn 0.0130 0.9996 -0.0255
vn 0.0000 1.0000 0.0000
vn 0.0000 -1.0000 0.0000
usemtl None
s off
f 1/1/1 2/2/1 4/3/1 3/4/1
f 3/4/2 4/3/2 6/5/2 5/6/2
f 5/6/3 6/5/3 8/7/3 7/8/3
f 7/9/4 8/10/4 10/11/4 9/12/4
f 9/12/5 10/11/5 12/13/5 11/14/5
f 11/14/6 12/13/6 14/15/6 13/16/6
f 13/16/7 14/15/7 16/17/7 15/18/7
f 15/19/8 16/20/8 18/21/8 17/22/8
f 17/22/9 18/21/9 20/23/9 19/24/9
f 19/24/10 20/23/10 22/25/10 21/26/10
f 21/26/11 22/25/11 24/27/11 23/28/11
f 23/28/12 24/27/12 26/29/12 25/30/12
f 25/31/13 26/32/13 28/33/13 27/34/13
f 27/34/14 28/33/14 30/35/14 29/36/14
f 29/36/15 30/35/15 32/37/15 31/38/15
f 31/38/16 32/37/16 34/39/16 33/40/16
f 33/40/17 34/39/17 36/41/17 35/42/17
f 35/43/18 36/44/18 38/45/18 37/46/18
f 33/47/19 35/48/19 75/49/19 73/50/19
f 37/46/20 38/45/20 40/51/20 39/52/20
f 39/52/21 40/51/21 2/2/21 1/1/21
f 15/53/22 17/54/22 57/55/22 55/56/22
f 72/57/5 70/58/5 110/59/5 112/60/5
f 42/61/12 45/62/12 85/63/12 82/64/12
f 18/65/23 16/66/23 56/67/23 58/68/23
f 36/69/24 34/70/24 74/71/24 76/72/24
f 7/73/25 9/74/25 49/75/25 47/76/25
f 25/77/26 27/78/26 67/79/26 65/80/26
f 10/81/27 8/82/27 48/83/27 50/84/27
f 28/85/28 26/86/28 66/87/28 68/88/28
f 17/54/29 19/89/29 59/90/29 57/55/29
f 35/48/30 37/91/30 77/92/30 75/49/30
f 20/93/31 18/65/31 58/68/31 60/94/31
f 38/95/32 36/69/32 76/72/32 78/96/32
f 9/97/33 11/98/33 51/99/33 49/100/33
f 27/78/34 29/101/34 69/102/34 67/79/34
f 1/103/35 3/104/35 42/105/35 41/106/35
f 12/107/36 10/108/36 50/109/36 52/110/36
f 30/111/37 28/85/37 68/88/37 70/112/37
f 4/113/38 2/114/38 44/115/38 43/116/38
f 19/89/39 21/117/39 61/118/39 59/90/39
f 37/91/40 39/119/40 79/120/40 77/92/40
f 22/121/41 20/93/41 60/94/41 62/122/41
f 40/123/42 38/95/42 78/96/42 80/124/42
f 11/125/43 13/126/43 53/127/43 51/128/43
f 29/129/44 31/130/44 71/131/44 69/132/44
f 14/133/45 12/134/45 52/135/45 54/136/45
f 32/137/46 30/138/46 70/58/46 72/57/46
f 3/104/47 5/139/47 45/140/47 42/105/47
f 21/141/48 23/142/48 63/143/48 61/144/48
f 39/145/49 1/146/49 41/147/49 79/148/49
f 6/149/50 4/113/50 43/116/50 46/150/50
f 24/151/51 22/152/51 62/153/51 64/154/51
f 2/155/52 40/156/52 80/157/52 44/158/52
f 13/126/53 15/53/53 55/56/53 53/127/53
f 31/159/54 33/47/54 73/50/54 71/160/54
f 16/66/55 14/133/55 54/136/55 56/67/55
f 34/70/56 32/161/56 72/162/56 74/71/56
f 5/139/57 7/73/57 47/76/57 45/140/57
f 23/163/58 25/77/58 65/80/58 63/164/58
f 8/82/59 6/149/59 46/150/59 48/83/59
f 26/86/60 24/165/60 64/166/60 66/87/60
f 83/167/61 84/168/61 120/169/61 118/170/61 116/171/61 114/172/61 112/173/61 110/174/61 108/175/61 106/176/61 104/177/61 102/178/61 100/179/61 98/180/61 96/181/61 94/182/61 92/183/61 90/184/61 88/185/61 86/186/61
f 81/187/62 82/188/62 85/189/62 87/190/62 89/191/62 91/192/62 93/193/62 95/194/62 97/195/62 99/196/62 101/197/62 103/198/62 105/199/62 107/200/62 109/201/62 111/202/62 113/203/62 115/204/62 117/205/62 119/206/62
f 57/207/20 59/208/20 99/209/20 97/210/20
f 46/211/12 43/212/12 83/213/12 86/214/12
f 71/131/6 73/215/6 113/216/6 111/217/6
f 60/218/20 58/219/20 98/220/20 100/221/20
f 45/222/13 47/223/13 87/224/13 85/225/13
f 74/226/6 72/57/6 112/60/6 114/227/6
f 59/208/21 61/144/21 101/228/21 99/209/21
f 48/229/13 46/230/13 86/231/13 88/232/13
f 73/215/7 75/233/7 115/234/7 113/216/7
f 62/153/21 60/218/21 100/221/21 102/235/21
f 47/223/14 49/100/14 89/236/14 87/224/14
f 76/237/7 74/226/7 114/227/7 116/238/7
f 61/144/1 63/143/1 103/239/1 101/228/1
f 50/109/14 48/229/14 88/232/14 90/240/14
f 75/241/8 77/242/8 117/243/8 115/244/8
f 64/154/1 62/153/1 102/235/1 104/245/1
f 49/100/15 51/99/15 91/246/15 89/236/15
f 78/247/8 76/248/8 116/249/8 118/250/8
f 63/143/2 65/251/2 105/252/2 103/239/2
f 52/110/15 50/109/15 90/240/15 92/253/15
f 77/242/9 79/148/9 119/254/9 117/243/9
f 66/255/2 64/154/2 104/245/2 106/256/2
f 51/99/16 53/257/16 93/258/16 91/246/16
f 80/157/9 78/247/9 118/250/9 120/259/9
f 65/260/3 67/261/3 107/262/3 105/263/3
f 54/264/16 52/110/16 92/253/16 94/265/16
f 79/148/10 41/147/10 81/266/10 119/254/10
f 68/267/3 66/268/3 106/269/3 108/270/3
f 53/257/17 55/271/17 95/272/17 93/258/17
f 44/158/10 80/157/10 120/259/10 84/273/10
f 67/261/4 69/132/4 109/274/4 107/262/4
f 56/275/17 54/264/17 94/265/17 96/276/17
f 41/147/11 42/61/11 82/64/11 81/266/11
f 70/58/4 68/267/4 108/270/4 110/59/4
f 55/271/18 57/277/18 97/278/18 95/272/18
f 43/212/11 44/158/11 84/273/11 83/213/11
f 69/132/5 71/131/5 111/217/5 109/274/5
f 58/279/18 56/275/18 96/276/18 98/280/18
